<svg id="line" height="512" viewBox="0 0 64 64" width="512" xmlns="http://www.w3.org/2000/svg"><g fill="#c3a1fb"><path d="m62 52.5a1 1 0 0 0 -1 1v3a1 1 0 0 1 -1 1h-2v-6h-45v5a3 3 0 0 0 3 3h1a4.985 4.985 0 0 1 9-2.969 4.985 4.985 0 0 1 9 2.969h25a3 3 0 0 0 3-3v-3a1 1 0 0 0 -1-1z"/><path d="m36 31.5h10v12h-10z"/><path d="m24 31.5h10v12h-10z"/><path d="m58 35.5a1 1 0 0 0 -.248-.659l-7-8a1 1 0 0 0 -.752-.341h-34a3 3 0 0 0 -3 3v20h45zm-10 9a1 1 0 0 1 -1 1h-24a1 1 0 0 1 -1-1v-14a1 1 0 0 1 1-1h24a1 1 0 0 1 1 1z"/><circle cx="22" cy="59.5" r="3"/><circle cx="30" cy="59.5" r="3"/></g><path d="m46.793 13.574a30.593 30.593 0 0 0 -19.165 8.748 45.521 45.521 0 0 0 -8.628-4.16v-6.25l2.293 2.293a1 1 0 1 0 1.414-1.414l-3.707-3.707v-2.172l2.293 2.293a1 1 0 1 0 1.414-1.414l-4-4a1 1 0 0 0 -1.414 0l-4 4a1 1 0 1 0 1.414 1.414l2.293-2.293v2.172l-3.707 3.707a1 1 0 1 0 1.414 1.414l2.293-2.293v5.606a45.783 45.783 0 0 0 -10-1.891v-5.715l2.293 2.293a1 1 0 1 0 1.414-1.414l-3.707-3.707v-2.172l2.293 2.293a1 1 0 0 0 1.414-1.414l-4-4a1 1 0 0 0 -1.414 0l-4 4a1 1 0 0 0 1.414 1.414l2.293-2.293v2.172l-3.707 3.707a1 1 0 1 0 1.414 1.414l2.293-2.293v5.613c-1.4-.044-1.463-.019-3-.027a1 1 0 0 0 -1 1v23a1 1 0 0 0 1 1h47a1 1 0 0 0 1-1v-22.924a3.01 3.01 0 0 0 -3.207-3zm1.207 24.926h-45v-21a43.877 43.877 0 0 1 26.117 8.22l15.3 11a1 1 0 1 0 1.166-1.624l-15.3-11q-.46-.332-.929-.651a28.126 28.126 0 0 1 17.576-7.876 1.007 1.007 0 0 1 1.07 1.005z" fill="#151a6a"/><path d="m43.8 19.019a24.479 24.479 0 0 0 -8.309 3.441 1 1 0 0 0 1.084 1.681 22.178 22.178 0 0 1 7.625-3.164 1 1 0 1 0 -.406-1.958z" fill="#151a6a"/><path d="m7.084 20.646a1 1 0 1 0 -.168 1.993 38.634 38.634 0 0 1 19.284 7.141 1 1 0 1 0 1.167-1.624 40.648 40.648 0 0 0 -20.283-7.51z" fill="#151a6a"/></svg>